<svg width="24" xmlns="http://www.w3.org/2000/svg" height="24" fill="none"><g style="fill: rgb(0, 0, 0);"><path d="M3.000,3.000L21.000,3.000C21.552,3.000,22.000,3.448,22.000,4.000L22.000,20.000C22.000,20.552,21.552,21.000,21.000,21.000L3.000,21.000C2.448,21.000,2.000,20.552,2.000,20.000L2.000,4.000C2.000,3.448,2.448,3.000,3.000,3.000ZZM4.000,5.000L4.000,19.000L20.000,19.000L20.000,5.000L4.000,5.000ZZM12.000,15.000L18.000,15.000L18.000,17.000L12.000,17.000L12.000,15.000ZZM8.667,12.000L5.838,9.172L7.253,7.757L11.495,12.000L7.253,16.243L5.838,14.828L8.667,12.000ZZ" style="fill: rgb(186, 187, 241);" class="fills"/></g></svg>