<svg width="24" xmlns="http://www.w3.org/2000/svg" height="24" fill="none"><g style="fill: rgb(0, 0, 0);"><path d="M12.000,14.000L12.000,16.000C8.686,16.000,6.000,18.686,6.000,22.000L4.000,22.000C4.000,17.582,7.582,14.000,12.000,14.000ZZM12.000,13.000C8.685,13.000,6.000,10.315,6.000,7.000C6.000,3.685,8.685,1.000,12.000,1.000C15.315,1.000,18.000,3.685,18.000,7.000C18.000,10.315,15.315,13.000,12.000,13.000ZZM12.000,11.000C14.210,11.000,16.000,9.210,16.000,7.000C16.000,4.790,14.210,3.000,12.000,3.000C9.790,3.000,8.000,4.790,8.000,7.000C8.000,9.210,9.790,11.000,12.000,11.000ZZM14.595,18.811C14.533,18.551,14.500,18.279,14.500,18.000C14.500,17.721,14.533,17.449,14.594,17.189L13.603,16.616L14.603,14.884L15.595,15.457C15.988,15.085,16.468,14.803,17.000,14.645L17.000,13.500L19.000,13.500L19.000,14.645C19.532,14.803,20.012,15.085,20.405,15.457L21.397,14.884L22.397,16.616L21.405,17.188C21.467,17.449,21.500,17.721,21.500,18.000C21.500,18.279,21.467,18.551,21.405,18.811L22.397,19.384L21.397,21.116L20.405,20.543C20.012,20.915,19.532,21.197,19.000,21.355L19.000,22.500L17.000,22.500L17.000,21.355C16.468,21.197,15.988,20.915,15.595,20.543L14.603,21.116L13.603,19.384L14.595,18.811ZZM18.000,19.500C18.828,19.500,19.500,18.828,19.500,18.000C19.500,17.172,18.828,16.500,18.000,16.500C17.172,16.500,16.500,17.172,16.500,18.000C16.500,18.828,17.172,19.500,18.000,19.500ZZ" style="fill: rgb(186, 187, 241);" class="fills"/></g></svg>