<svg width="24" xmlns="http://www.w3.org/2000/svg" height="24" fill="none"><g style="fill: rgb(0, 0, 0);"><path d="M8.595,12.812C8.533,12.551,8.500,12.279,8.500,12.000C8.500,11.721,8.533,11.449,8.595,11.189L7.603,10.616L8.603,8.884L9.595,9.457C9.988,9.085,10.468,8.803,11.000,8.645L11.000,7.500L13.000,7.500L13.000,8.645C13.532,8.803,14.012,9.085,14.405,9.457L15.397,8.884L16.397,10.616L15.405,11.188C15.467,11.449,15.500,11.721,15.500,12.000C15.500,12.279,15.467,12.551,15.405,12.811L16.397,13.384L15.397,15.116L14.405,14.543C14.012,14.915,13.533,15.197,13.000,15.355L13.000,16.500L11.000,16.500L11.000,15.355C10.468,15.197,9.988,14.915,9.595,14.543L8.603,15.116L7.603,13.384L8.595,12.812ZZM12.000,13.500C12.828,13.500,13.500,12.828,13.500,12.000C13.500,11.172,12.828,10.500,12.000,10.500C11.172,10.500,10.500,11.172,10.500,12.000C10.500,12.828,11.172,13.500,12.000,13.500ZZM15.000,4.000L5.000,4.000L5.000,20.000L19.000,20.000L19.000,8.000L15.000,8.000L15.000,4.000ZZM3.000,2.992C3.000,2.444,3.447,2.000,3.999,2.000L16.000,2.000L21.000,7.000L21.000,20.992C21.000,21.549,20.555,22.000,20.007,22.000L3.993,22.000C3.445,22.000,3.000,21.545,3.000,21.008L3.000,2.992ZZ" style="fill: rgb(224, 122, 95);" class="fills"/></g></svg>